<?xml version="1.0" encoding="UTF-8" standalone="no"?><!DOCTYPE svg PUBLIC "-//W3C//DTD SVG 1.1//EN" "http://www.w3.org/Graphics/SVG/1.1/DTD/svg11.dtd"><svg xmlns="http://www.w3.org/2000/svg" xmlns:xlink="http://www.w3.org/1999/xlink" version="1.1" width="150" height="48" viewBox="0 51 150 48">
<desc>Created with SVGMaker Editor 3.0.0</desc>
<defs>
</defs>
<path transform="translate(0,0)" style="stroke: rgb(255,255,255); stroke-opacity: 0; fill: rgb(255,255,255)" stroke-linecap="round" d="M59.7438 53.0517L58.6051 53.0517 58.6051 96.8017 59.7438 96.8017 59.7438 53.0517Z"/>
<path transform="translate(0,0)" style="stroke: rgb(255,255,255); stroke-opacity: 0; fill: rgb(204,0,51)" stroke-linecap="round" d="M36.1634 75.8551L36.8601 75.5914C42.6459 73.4106 45.4581 70.1154 45.4581 65.5169 45.4581 62.3325 44.1844 59.737 41.569 57.5795 38.7968 55.3311 34.9847 54.1907 30.2401 54.1907 30.2401 54.1907 3.1372 54.1886 1.9947 54.1912L1.9947 60.1981C2.1711 60.1987 3.4314 60.1993 5.2835 60.2002L5.2835 89.6649 1.9944 89.6649 1.9944 95.6616 21.257 95.6616 21.257 89.6649 17.8584 89.6649 17.8584 76.9695 24.8407 76.9695 32.8287 89.6649 28.3359 89.6649 28.3359 95.6616 49.1927 95.6616 49.1927 89.6649 45.2478 89.6649 36.1634 75.8551ZM30.6615 69.5148L30.6449 69.5271C29.1578 70.6905 26.9644 71.2797 24.1235 71.2797L17.8581 71.2797 17.8581 60.1987C22.1276 60.1987 25.5849 60.1981 25.5849 60.1981 27.9979 60.1981 29.8755 60.8754 31.1562 62.1987 32.0906 63.1244 32.5643 64.2911 32.5643 65.6724 32.5643 67.1593 31.9235 68.4529 30.6615 69.5148Z"/>
<path transform="translate(0,0)" style="stroke: rgb(255,255,255); stroke-opacity: 0; fill: rgb(255,255,255)" stroke-linecap="round" d="M25.5857 60.1981C25.5857 60.1981 22.1284 60.1987 17.8582 60.1987L17.8582 71.2797 24.1242 71.2797C26.9647 71.2797 29.1585 70.6902 30.6456 69.5271L30.6622 69.5151C31.9246 68.4532 32.5651 67.1596 32.5651 65.6727 32.5651 64.2914 32.0913 63.1247 31.1569 62.199 29.8756 60.8757 27.9987 60.1981 25.5857 60.1981ZM29.9482 68.6261L29.9424 68.6293C28.6623 69.6321 26.704 70.1407 24.1242 70.1407L18.9976 70.1407 18.9976 61.3388 25.5857 61.3377C27.6772 61.3377 29.2768 61.8945 30.3386 62.9917L30.3558 63.0089C31.0753 63.7226 31.4263 64.5935 31.4263 65.6727 31.4263 66.8163 30.943 67.7826 29.9482 68.6261Z"/>
<path transform="translate(0,0)" style="stroke: rgb(255,255,255); stroke-opacity: 0; fill: rgb(255,255,255)" stroke-linecap="round" d="M71.5436 88.3451L70.2984 85.5603C69.8903 84.6494 69.451 83.6236 69.3148 83.1733 69.3673 83.77 69.3775 84.6284 69.388 85.2357L69.4297 88.3448 68.0172 88.3448 68.0172 81.0689 69.6393 81.0689 71.0311 83.9792C71.3972 84.7538 71.6797 85.518 71.8264 86.0415 71.7739 85.4763 71.7217 84.5444 71.7112 84.0419L71.6797 81.0686 73.0715 81.0686 73.0715 88.3445 71.5436 88.3445 71.5436 88.3451Z"/>
<path transform="translate(0,0)" style="stroke: rgb(255,255,255); stroke-opacity: 0; fill: rgb(255,255,255)" stroke-linecap="round" d="M74.0335 88.3451L74.0335 81.0692 78.1774 81.0692 77.9891 82.2627 75.5195 82.2627 75.5195 83.9483 77.5809 83.9483 77.5809 85.1418 75.5195 85.1418 75.5195 87.0889 78.2716 87.0889 78.2716 88.3451 74.0335 88.3451Z"/>
<path transform="translate(0,0)" style="stroke: rgb(255,255,255); stroke-opacity: 0; fill: rgb(255,255,255)" stroke-linecap="round" d="M85.6272 88.4078L84.0264 88.4078 83.3774 85.4451C83.1786 84.5552 83.0532 83.6758 83.0323 83.3932 83.0008 83.5921 82.8754 84.4925 82.6871 85.4241L82.0801 88.4078 80.4163 88.4078 78.679 81.0692 80.2277 81.0692 80.8557 83.9378C81.1279 85.2045 81.2218 86.178 81.2428 86.3248 81.2743 86.0211 81.3997 84.995 81.6195 84.0113L82.2684 81.0695 83.8693 81.0695 84.5389 84.3254C84.6748 84.9743 84.8319 86.1261 84.8529 86.241 84.8739 85.9899 85.0937 84.5345 85.2506 83.8333L85.847 81.0695 87.3852 81.0695 85.6272 88.4078Z"/>
<path transform="translate(0,0)" style="stroke: rgb(255,255,255); stroke-opacity: 0; fill: rgb(255,255,255)" stroke-linecap="round" d="M91.2456 88.3451L90.7328 86.6179 88.5982 86.6179 88.0854 88.3451 86.5577 88.3451 88.9433 81.0485 90.5235 81.0485 92.8152 88.3451 91.2456 88.3451ZM89.9795 83.9377L89.6865 82.65C89.6445 82.8175 89.4667 83.5714 89.3413 84.053 89.2054 84.5765 89.111 84.9218 88.9541 85.4034L90.3774 85.4034C90.3249 85.2465 90.0946 84.4403 89.9795 83.9377Z"/>
<path transform="translate(0,0)" style="stroke: rgb(255,255,255); stroke-opacity: 0; fill: rgb(255,255,255)" stroke-linecap="round" d="M96.8119 88.3451C96.5294 87.8636 96.4143 87.6647 96.1318 87.1516 95.4099 85.8429 95.1901 85.4871 94.9286 85.3719 94.8554 85.3404 94.7924 85.3197 94.6983 85.3092L94.6983 88.3451 93.2645 88.3451 93.2645 81.0692 95.9746 81.0692C97.2617 81.0692 98.1092 81.9276 98.1092 83.2048 98.1092 84.2936 97.3871 85.194 96.4871 85.2147 96.6338 85.3299 96.6965 85.3926 96.7906 85.5183 97.1673 85.9893 98.2766 87.8843 98.5381 88.3448L96.8116 88.3448 96.8119 88.3451ZM96.0481 82.3464C95.8807 82.2837 95.5772 82.2417 95.2213 82.2417L94.6983 82.2417 94.6983 84.2099 95.1901 84.2099C95.8181 84.2099 96.0901 84.1472 96.2889 83.969 96.4667 83.8016 96.5714 83.5396 96.5714 83.236 96.5714 82.786 96.3935 82.4721 96.0481 82.3464Z"/>
<path transform="translate(0,0)" style="stroke: rgb(255,255,255); stroke-opacity: 0; fill: rgb(255,255,255)" stroke-linecap="round" d="M102.7758 88.3451L100.5678 84.545 100.5678 88.3451 99.0716 88.3451 99.0716 81.0692 100.5678 81.0692 100.5678 84.3878 102.6398 81.0692 104.4398 81.0692 102.1168 84.4403 104.7018 88.3451 102.7758 88.3451 102.7758 88.3451Z"/>
<path transform="translate(0,0)" style="stroke: rgb(255,255,255); stroke-opacity: 0; fill: rgb(255,255,255)" stroke-linecap="round" d="M75.1336 76.3882C74.5668 75.4222 74.3359 75.0232 73.7692 73.9942 72.3205 71.3689 71.8797 70.6549 71.355 70.4239 71.208 70.3609 71.0821 70.3189 70.8932 70.2979L70.8932 76.3885 68.0172 76.3885 68.0172 61.7921 73.4543 61.7921C76.0362 61.7921 77.7367 63.5143 77.7367 66.0763 77.7367 68.2606 76.2883 70.0666 74.4829 70.1086 74.7767 70.3396 74.9027 70.4656 75.0916 70.7176 75.8472 71.6629 78.0725 75.4639 78.5973 76.3882L75.1336 76.3882ZM73.6013 64.3543C73.2654 64.2283 72.6567 64.1443 71.943 64.1443L70.8932 64.1443 70.8932 68.0926 71.8797 68.0926C73.1395 68.0926 73.6852 67.9666 74.084 67.6096 74.4409 67.2736 74.6508 66.7486 74.6508 66.1393 74.6508 65.2363 74.2939 64.6066 73.6013 64.3543Z"/>
<path transform="translate(0,0)" style="stroke: rgb(255,255,255); stroke-opacity: 0; fill: rgb(255,255,255)" stroke-linecap="round" d="M90.1628 73.9102C89.785 75.0652 88.3576 76.6615 85.2087 76.6615 82.9835 76.6615 81.3462 75.9895 80.5273 74.7082 80.0445 73.9522 79.8975 73.3642 79.8975 71.9569L79.8975 61.7921 82.8995 61.7921 82.8995 71.3899C82.8995 72.2932 82.9835 72.8179 83.1514 73.1332 83.4872 73.7842 84.1799 74.1415 85.1455 74.1415 86.4262 74.1415 87.2448 73.5115 87.3708 72.4402 87.4128 72.1252 87.4128 71.9152 87.4128 71.1382L87.4128 61.7921 90.3937 61.7921 90.3937 71.6209C90.3937 73.0069 90.3727 73.2799 90.1628 73.9102Z"/>
<path transform="translate(0,0)" style="stroke: rgb(255,255,255); stroke-opacity: 0; fill: rgb(255,255,255)" stroke-linecap="round" d="M101.9088 64.2283L98.4245 64.2283 98.4245 76.3882 95.4435 76.3882 95.4435 64.2283 91.8748 64.2283 91.8748 61.7921 102.3918 61.7921 101.9088 64.2283Z"/>
<path transform="translate(0,0)" style="stroke: rgb(255,255,255); stroke-opacity: 0; fill: rgb(255,255,255)" stroke-linecap="round" d="M108.9408 76.5565C106.7568 76.5565 105.1408 75.8425 103.9658 74.3302 102.8948 72.9652 102.4118 71.4109 102.4118 69.2267 102.4118 66.1394 103.4198 63.9551 105.4558 62.5901 106.5268 61.8761 107.6178 61.5611 109.0038 61.5611 110.7668 61.5611 112.3628 62.1281 113.6428 63.2414L112.0898 65.0684C111.1448 64.2914 110.1578 63.9344 109.0458 63.9344 108.1848 63.9344 107.4498 64.1864 106.9458 64.6694 105.9598 65.6147 105.7078 67.1897 105.7078 69.3737 105.7078 71.4529 106.0648 72.7969 106.7988 73.5319 107.3448 74.0569 108.1428 74.3512 109.0878 74.3512 109.7378 74.3512 110.2628 74.2462 110.7458 73.9942L110.7458 70.6759 108.5208 70.6759 108.1428 68.2819 113.7898 68.2819 113.7898 75.2545C112.2998 76.1365 110.6618 76.5565 108.9408 76.5565Z"/>
<path transform="translate(0,0)" style="fill: rgb(255,255,255)" stroke-linecap="round" d="M115.9508 76.3882L115.9508 61.7921 124.2638 61.7921 123.8858 64.1863 118.9318 64.1863 118.9318 67.5676 123.0668 67.5676 123.0668 69.9619 118.9318 69.9619 118.9318 73.8682 124.4528 73.8682 124.4528 76.3885 115.9508 76.3882Z"/>
<path transform="translate(0,0)" style="fill: rgb(255,255,255)" stroke-linecap="round" d="M133.4158 76.3882C132.8488 75.4222 132.6178 75.0232 132.0508 73.9942 130.6018 71.3689 130.1618 70.6549 129.6368 70.4239 129.4898 70.3609 129.3638 70.3189 129.1748 70.2979L129.1748 76.3885 126.2988 76.3885 126.2988 61.7921 131.7358 61.7921C134.3178 61.7921 136.0188 63.5143 136.0188 66.0763 136.0188 68.2606 134.5698 70.0666 132.7648 70.1086 133.0588 70.3396 133.1848 70.4656 133.3738 70.7176 134.1288 71.6629 136.3538 75.4639 136.8788 76.3882L133.4158 76.3882ZM131.8828 64.3543C131.5468 64.2283 130.9378 64.1443 130.2248 64.1443L129.1748 64.1443 129.1748 68.0926 130.1608 68.0926C131.4208 68.0926 131.9668 67.9666 132.3658 67.6096 132.7228 67.2736 132.9318 66.7486 132.9318 66.1393 132.9318 65.2363 132.5758 64.6066 131.8828 64.3543Z"/>
<path transform="translate(0,0)" style="stroke: rgb(255,255,255); stroke-opacity: 0; fill: rgb(255,255,255)" stroke-linecap="round" d="M142.3308 76.7035C140.6728 76.7035 138.8248 76.2205 137.3558 75.3805L138.4478 73.0912C139.8118 73.8052 140.9878 74.2675 142.4568 74.2675 144.1368 74.2675 145.0178 73.5745 145.0178 72.2722 145.0178 71.3272 144.4098 70.7392 143.1078 70.3822L141.4918 69.9412C140.0428 69.5422 139.1408 68.9752 138.6158 68.0932 138.2168 67.4422 138.0068 66.6859 138.0068 65.8669 138.0068 63.1997 140.1488 61.3517 143.2348 61.3517 145.0188 61.3517 146.8238 61.8979 148.1048 62.8219L146.7188 64.9222C145.3968 64.1242 144.4098 63.8092 143.3178 63.8092 142.1218 63.8092 141.2818 64.5022 141.2818 65.4895 141.2818 66.2455 141.6808 66.6235 142.8978 66.9598L144.6618 67.4428C147.0548 68.0938 148.3568 69.6271 148.3568 71.7901 148.3568 74.7514 145.9638 76.7047 142.3318 76.7047L142.3308 76.7035Z"/>
<path transform="translate(0,0)" style="stroke: rgb(255,255,255); stroke-opacity: 0; fill: rgb(255,255,255)" stroke-linecap="round" d="M45.862 88.5248L37.8925 76.411C43.6693 74.0619 46.5975 70.3997 46.5975 65.5167 46.5975 61.9723 45.1894 59.0886 42.286 56.6949 39.3062 54.277 35.2538 53.0517 30.2406 53.0517L0.8558 53.0537 0.8558 61.3321C0.8558 61.3321 2.923 61.3391 4.1446 61.3391L4.1446 88.5248 0.8558 88.5248 0.8558 96.8017 22.3971 96.8017 22.3971 88.5248 18.9975 88.5248 18.9975 78.1091 24.2119 78.1091 30.7656 88.5248 27.1967 88.5248 27.1967 96.8017 50.3315 96.8017 50.3315 88.5248 45.8614 88.5248 45.862 88.5248ZM49.1925 95.6619L28.3357 95.6619 28.3357 89.6646 32.8294 89.6646 24.8413 76.9698 17.8582 76.9698 17.8582 89.6646 21.2569 89.6646 21.2569 95.6619 1.9945 95.6619 1.9945 89.6646 5.2833 89.6646 5.2833 60.2004C3.4315 60.1999 2.1712 60.1984 1.9945 60.1978L1.9945 54.1909C3.137 54.1889 30.2406 54.1909 30.2406 54.1909 34.985 54.1909 38.7966 55.3314 41.5688 57.5798 44.1845 59.7364 45.4579 62.3322 45.4579 65.5167 45.4579 70.1154 42.6454 73.41 36.8599 75.5911L36.1631 75.8548 45.2483 89.6646 49.1922 89.6646 49.1922 95.6619 49.1925 95.6619Z"/>
</svg>